# xmcd CD database file
# Copyright (C) 1996 Ti Kan
#
# Track frame offsets:
#	150
#	3002
#	16785
#	38775
#	53692
#	57742
#	69987
#	84427
#	88577
#	91385
#	108797
#	112907
#	132232
#
# Disc length: 1861 seconds
#
# Revision: 1
# Processed by: cddbd v1.4b41PL1 Copyright (c) Steve Scherf et al.
# Submitted via: EasyCD 2.21 - (C) 1996 Greg Leichner
#
DISCID=9207430d
DTITLE=Willie Nelson - Tougher Than Leather
DYEAR=1900
DGENRE=
TTITLE0=My Love For The Rose
TTITLE1=Changing Skies
TTITLE2=Tougher Than Leather
TTITLE3=Little Old Fashioned Karma
TTITLE4=Somewhere In Texas
TTITLE5=Beer Barrel Polka
TTITLE6=Summer of Roses
TTITLE7=Somewhere In Texas
TTITLE8=My Love For The Rose
TTITLE9=The Convict And The Rose
TTITLE10=Changing Skies
TTITLE11=I Am The Forest
TTITLE12=Nobody Slides, My Friend
EXTD=
EXTT0=
EXTT1=
EXTT2=
EXTT3=
EXTT4=
EXTT5=
EXTT6=
EXTT7=
EXTT8=
EXTT9=
EXTT10=
EXTT11=
EXTT12=
PLAYORDER=
